<?xml version="1.0" encoding="utf-8"?>
<!-- Generator: Adobe Illustrator 26.5.0, SVG Export Plug-In . SVG Version: 6.00 Build 0)  -->
<svg version="1.1" id="Layer_1" xmlns="http://www.w3.org/2000/svg" xmlns:xlink="http://www.w3.org/1999/xlink" x="0px" y="0px"
	 viewBox="0 0 94 70" style="enable-background:new 0 0 94 70;" xml:space="preserve">
<style type="text/css">
	.st0{fill:#DB3249;}
</style>
<g transform="translate(0.000000,70.000000) scale(0.100000,-0.100000)">
	<path class="st0" d="M140,440V230h65h65v210v210h-65h-65V440z"/>
	<path class="st0" d="M382,440l-90-210h68h68l22,55c12,30,25,55,29,55s14-13,24-29c15-26,73-71,91-71c4,0,18,25,32,56l25,57l-29,31
		c-16,17-35,41-41,53c-16,31-14,103,4,153c8,23,15,46,15,51s-29,9-64,9h-64L382,440z"/>
	<path class="st0" d="M693,635c-90-39-96-191-11-236c13-6,24-13,26-14c2-2-10-35-27-75s-31-74-31-77c0-2,30-3,67-1l67,3l52,120
		c58,133,65,181,34,232C835,646,762,665,693,635z"/>
	<path class="st0" d="M428,202l-58-25v-63c0-45,4-64,13-64c6,0,57,7,112,15s103,15,108,15c4,0,7,27,7,60v60l-59-6c-54-6-60-5-63,13
		C485,227,484,227,428,202z"/>
</g>
</svg>
